<?xml version="1.0" encoding="iso-8859-1"?>
<!-- Uploaded to: SVG Repo, www.svgrepo.com, Generator: SVG Repo Mixer Tools -->
<svg version="1.1" id="Layer_1" xmlns="http://www.w3.org/2000/svg" xmlns:xlink="http://www.w3.org/1999/xlink" 
	 viewBox="0 0 511.787 511.787" xml:space="preserve">
<g transform="translate(1 1)">
	<g>
		<path style="fill:#FFE100;" d="M498.52,393.987l-39.253-228.693h-204.8h-204.8L10.413,393.987
			c-2.56,15.36-3.413,29.867-2.56,45.227c0.853,22.187,5.12,50.347,16.213,50.347h230.4h230.4c11.093,0,15.36-28.16,16.213-50.347
			C501.933,423.853,501.08,408.493,498.52,393.987"/>
		<path style="fill:#FFE100;" d="M398.68,165.293C390.147,111.533,352.6,20.227,263,20.227s-127.147,91.307-135.68,145.067h34.987
			c2.56-11.947,7.68-32.427,17.92-52.907C199.853,73.987,228.013,54.36,263,54.36s63.147,19.627,82.773,58.027
			c10.24,20.48,15.36,40.96,17.92,52.907H398.68z"/>
	</g>
	<g>
		<path style="fill:#00DA6C;" d="M193.027,199.427h-30.72c-5.973,0-10.24-4.267-10.24-10.24v-23.893h51.2v23.893
			C203.267,195.16,199,199.427,193.027,199.427"/>
		<path style="fill:#00DA6C;" d="M211.8,284.76c0,18.773-15.36,34.133-34.133,34.133s-34.133-15.36-34.133-34.133
			s15.36-34.133,34.133-34.133S211.8,265.987,211.8,284.76"/>
	</g>
	<g>
		<path style="fill:#FDCC00;" d="M356.867,429.827c0,21.333,4.267,40.96,11.947,59.733h116.053c11.093,0,15.36-28.16,16.213-50.347
			c0.853-15.36,0-29.867-2.56-45.227L478.893,279.64C409.773,294.147,356.867,355.587,356.867,429.827"/>
		<path style="fill:#FDCC00;" d="M30.04,279.64L10.413,393.987c-2.56,15.36-3.413,29.867-2.56,45.227
			c0.853,22.187,5.12,50.347,16.213,50.347H140.12c7.68-18.773,11.947-38.4,11.947-59.733
			C152.067,355.587,100.013,294.147,30.04,279.64"/>
	</g>
	<path style="fill:#FFA800;" d="M499.373,393.987L460.12,165.293h-25.6l39.253,228.693c2.56,15.36,3.413,29.867,2.56,45.227
		c-1.707,22.187-5.12,50.347-16.213,50.347h25.6c11.093,0,15.36-28.16,16.213-50.347
		C502.787,423.853,501.933,408.493,499.373,393.987"/>
	<path style="fill:#FFFFFF;" d="M10.413,393.987l39.253-228.693h25.6L36.013,393.987c-2.56,15.36-3.413,29.867-2.56,45.227
		c1.707,22.187,5.12,50.347,16.213,50.347h-25.6c-11.093,0-15.36-28.16-16.213-50.347C7,423.853,7.853,408.493,10.413,393.987"/>
	<path d="M484.867,498.093h-460.8c-15.36,0-23.04-17.92-24.747-58.88c-0.853-15.36,0-31.573,2.56-46.933l40.96-235.52h424.107
		l40.96,235.52c2.56,16.213,3.413,31.573,2.56,46.933C507.907,480.173,500.227,498.093,484.867,498.093z M24.92,481.027h459.093
		c0.853-1.707,6.827-9.387,8.533-42.667c0.853-13.653,0-29.013-2.56-43.52L452.44,173.827H56.493L18.947,394.84
		c-2.56,15.36-3.413,29.867-2.56,43.52C18.093,471.64,23.213,479.32,24.92,481.027z"/>
	<path d="M193.027,207.96h-30.72c-10.24,0-18.773-8.533-18.773-18.773V156.76H211.8v32.427
		C211.8,199.427,203.267,207.96,193.027,207.96z M160.6,173.827v15.36c0,0.853,0.853,1.707,1.707,1.707h30.72
		c0.853,0,1.707-0.853,1.707-1.707v-15.36H160.6z"/>
	<rect x="169.133" y="199.427" width="17.067" height="59.733"/>
	<path d="M177.667,327.427c-23.893,0-42.667-18.773-42.667-42.667c0-23.893,18.773-42.667,42.667-42.667
		s42.667,18.773,42.667,42.667C220.333,308.653,201.56,327.427,177.667,327.427z M177.667,259.16c-14.507,0-25.6,11.093-25.6,25.6
		c0,14.507,11.093,25.6,25.6,25.6c14.507,0,25.6-11.093,25.6-25.6C203.267,270.253,192.173,259.16,177.667,259.16z"/>
	<path d="M186.2,293.293h-17.067c-5.12,0-8.533-3.413-8.533-8.533c0-5.12,3.413-8.533,8.533-8.533H186.2
		c5.12,0,8.533,3.413,8.533,8.533C194.733,289.88,191.32,293.293,186.2,293.293z"/>
	<path d="M408.92,173.827h-52.053L355.16,167c-2.56-12.8-7.68-31.573-17.067-50.347c-17.92-35.84-43.52-53.76-75.093-53.76
		s-57.173,17.92-75.093,53.76C178.52,135.427,173.4,154.2,170.84,167l-1.707,6.827h-51.2l1.707-10.24
		c8.533-56.32,49.493-151.893,143.36-151.893s134.827,95.573,144.213,151.893L408.92,173.827z M370.52,156.76h17.92
		c-11.093-52.053-47.787-128-125.44-128s-114.347,75.947-125.44,128h17.92c3.413-13.653,8.533-30.72,17.067-47.787
		C193.88,67.16,224.6,45.827,263,45.827s69.12,21.333,90.453,63.147C361.987,126.04,367.107,143.107,370.52,156.76z"/>
	<path d="M288.6,242.093h-51.2c-5.12,0-8.533-3.413-8.533-8.533c0-5.12,3.413-8.533,8.533-8.533h51.2
		c5.12,0,8.533,3.413,8.533,8.533C297.133,238.68,293.72,242.093,288.6,242.093z"/>
	<path d="M484.867,498.093H363.693l-2.56-5.12c-8.533-20.48-12.8-40.96-12.8-63.147c0-75.947,53.76-143.36,128.853-158.72
		l8.533-1.707l21.333,122.88c2.56,16.213,3.413,31.573,2.56,46.933C507.907,480.173,500.227,498.093,484.867,498.093z
		 M374.787,481.027h109.227c0.853-1.707,6.827-9.387,8.533-42.667c0.853-13.653,0-29.013-2.56-43.52l-17.92-104.96
		C409.773,306.947,365.4,364.973,365.4,429.827C365.4,447.747,368.813,464.813,374.787,481.027z"/>
	<path d="M146.093,498.093H24.067c-15.36,0-23.04-17.92-24.747-58.88c-0.853-15.36,0-31.573,2.56-46.933L23.213,269.4l8.533,1.707
		c75.093,15.36,128.853,81.92,128.853,158.72c0,22.187-4.267,42.667-12.8,63.147L146.093,498.093z M24.92,481.027H135
		c5.973-16.213,9.387-33.28,9.387-51.2c0-65.707-44.373-122.88-106.667-139.947L18.947,394.84c-2.56,15.36-3.413,29.867-2.56,43.52
		C18.093,471.64,23.213,479.32,24.92,481.027z"/>
</g>
</svg>